#N canvas 1 23 689 584 12;
#X obj 40 365 tabread4~ grainArray;
#X obj 40 414 *~ -0.8;
#X obj 40 437 throw~ grainOut;
#X obj 484 14 inlet;
#X obj 40 278 *~;
#X obj 253 179 r grainPitch;
#X obj 484 71 bng 15 250 50 0 empty empty empty 17 7 0 10 -262144 -1
-1;
#X obj 484 91 s \$0-grainBang;
#X obj 235 138 r \$0-grainBang;
#X obj 235 200 f;
#X obj 484 49 t b;
#X obj 297 214 r startLoc;
#X obj 40 6 r \$0-grainBang;
#X obj 297 275 *;
#X obj 315 235 r sampleDuration;
#X obj 235 223 f;
#X obj 40 232 line~;
#X obj 40 255 *~;
#X obj 40 183 f;
#X obj 40 156 t b b;
#X obj 165 112 / 44.1;
#X msg 72 183 0;
#X msg 40 207 1 \$1;
#X obj 165 91 r grainSize;
#X obj 58 329 tabread~ crown;
#X obj 58 305 *~ 441;
#X obj 40 390 *~;
#X obj 253 158 r grainSize;
#X obj 315 255 -;
#X obj 163 8 r reverse;
#X obj 40 87 spigot;
#X obj 110 87 spigot;
#X obj 163 29 sel 0 1;
#X msg 163 49 1;
#X msg 186 49 0;
#X msg 164 69 0;
#X msg 187 69 1;
#X obj 110 183 f;
#X obj 110 156 t b b;
#X msg 110 207 0 \$1;
#X msg 142 183 1;
#X obj 279 303 f;
#X obj 239 8 loadbang;
#X connect 0 0 26 0;
#X connect 1 0 2 0;
#X connect 3 0 10 0;
#X connect 4 0 0 0;
#X connect 5 0 9 1;
#X connect 6 0 7 0;
#X connect 8 0 9 0;
#X connect 8 0 15 0;
#X connect 8 0 41 0;
#X connect 9 0 17 1;
#X connect 9 0 28 1;
#X connect 10 0 6 0;
#X connect 11 0 13 0;
#X connect 12 0 30 0;
#X connect 12 0 31 0;
#X connect 13 0 41 1;
#X connect 14 0 28 0;
#X connect 15 0 4 1;
#X connect 16 0 17 0;
#X connect 16 0 25 0;
#X connect 17 0 4 0;
#X connect 18 0 22 0;
#X connect 19 0 18 0;
#X connect 19 1 21 0;
#X connect 20 0 18 1;
#X connect 20 0 37 1;
#X connect 21 0 16 0;
#X connect 22 0 16 0;
#X connect 23 0 20 0;
#X connect 24 0 26 1;
#X connect 25 0 24 0;
#X connect 26 0 1 0;
#X connect 27 0 15 1;
#X connect 28 0 13 1;
#X connect 29 0 32 0;
#X connect 30 0 19 0;
#X connect 31 0 38 0;
#X connect 32 0 33 0;
#X connect 32 0 35 0;
#X connect 32 1 34 0;
#X connect 32 1 36 0;
#X connect 33 0 30 1;
#X connect 34 0 30 1;
#X connect 35 0 31 1;
#X connect 36 0 31 1;
#X connect 37 0 39 0;
#X connect 38 0 37 0;
#X connect 38 1 40 0;
#X connect 39 0 16 0;
#X connect 40 0 16 0;
#X connect 41 0 0 1;
#X connect 42 0 33 0;
#X connect 42 0 35 0;
