#N canvas 1 23 824 569 12;
#X obj 40 380 tabread4~ grainArray;
#X floatatom 40 168 8 0 0 0 - - -;
#X obj 40 190 t f f;
#X obj 40 237 pack f f f;
#X obj 73 214 +;
#X floatatom 107 176 5 0 0 0 - - -;
#X obj 107 196 * 44.1;
#X msg 40 260 \$1 \, \$2 \$3;
#X obj 146 129 loadbang;
#X obj 146 152 samplerate~;
#X obj 146 175 / 1000;
#X obj 40 80 t f b, f 32;
#X obj 261 103 t b b;
#X obj 261 126 del 50;
#X msg 293 150 1;
#X msg 261 149 0;
#X obj 261 172 pack f 50;
#X obj 261 195 line~;
#X obj 40 403 *~;
#X obj 300 103 - 50;
#X obj 325 60 r grainDuration;
#X obj 40 426 *~ -0.8;
#X obj 40 449 throw~ grainOut;
#X obj 624 38 inlet;
#X obj 40 349 *~;
#X obj 133 268 r grainPitch;
#X obj 624 95 bng 15 250 50 0 empty empty empty 17 7 0 10 -262144 -1
-1;
#X obj 624 115 s \$0-grainBang;
#X obj 115 247 r \$0-grainBang;
#X obj 115 289 f;
#X obj 325 81 * 1000;
#X obj 624 73 t b;
#X obj 151 14 r startLoc;
#X obj 40 32 r \$0-grainBang;
#X obj 40 55 f;
#X obj 151 38 *;
#X obj 230 15 r sampleDuration;
#X floatatom 151 57 8 0 0 0 - - -;
#X obj 114 312 f;
#X obj 339 309 print~;
#X obj 40 284 line~;
#X msg 565 354 1 \$1;
#X obj 569 265 r grainsize;
#X obj 553 320 f;
#X obj 525 265 t b b;
#X obj 569 286 / 44.1;
#X msg 527 354 0;
#X obj 525 204 r \$0-grainBang;
#X obj 40 316 *~;
#X connect 0 0 18 0;
#X connect 1 0 2 0;
#X connect 2 0 3 0;
#X connect 2 1 4 0;
#X connect 3 0 7 0;
#X connect 4 0 3 1;
#X connect 5 0 6 0;
#X connect 6 0 4 1;
#X connect 7 0 40 0;
#X connect 8 0 9 0;
#X connect 9 0 10 0;
#X connect 10 0 6 1;
#X connect 11 0 1 0;
#X connect 11 1 12 0;
#X connect 12 0 13 0;
#X connect 12 1 14 0;
#X connect 13 0 15 0;
#X connect 14 0 16 0;
#X connect 15 0 16 0;
#X connect 16 0 17 0;
#X connect 17 0 18 1;
#X connect 18 0 21 0;
#X connect 19 0 13 1;
#X connect 20 0 30 0;
#X connect 21 0 22 0;
#X connect 23 0 31 0;
#X connect 24 0 0 0;
#X connect 25 0 29 1;
#X connect 26 0 27 0;
#X connect 28 0 29 0;
#X connect 28 0 38 0;
#X connect 28 0 39 0;
#X connect 29 0 24 1;
#X connect 30 0 19 1;
#X connect 30 0 5 0;
#X connect 30 0 38 1;
#X connect 31 0 26 0;
#X connect 32 0 35 0;
#X connect 33 0 34 0;
#X connect 34 0 11 0;
#X connect 35 0 34 1;
#X connect 35 0 37 0;
#X connect 36 0 35 1;
#X connect 40 0 39 0;
#X connect 40 0 48 0;
#X connect 42 0 45 0;
#X connect 43 0 41 0;
#X connect 44 0 43 0;
#X connect 44 1 46 0;
#X connect 45 0 43 1;
#X connect 47 0 44 0;
#X connect 48 0 24 0;
