#N canvas 416 23 852 524 12;
#N canvas 215 23 772 462 dac 0;
#X obj 340 373 dac~;
#X obj 162 112 vsl 15 128 0 1 0 0 empty empty empty 0 -9 0 10 -4032
-1 -1 6350 1;
#X obj 341 224 *~;
#X obj 120 191 tgl 15 0 empty empty empty 17 7 0 10 -262144 -1 -1 1
1;
#X text 107 173 on/off;
#X text 109 143 volume;
#X obj 341 201 *~;
#X obj 341 173 inlet~;
#X msg 261 299 \$1 20;
#X obj 261 321 line~;
#X obj 192 112 vsl 15 128 0 1 0 0 empty empty empty 0 -9 0 10 -4032
-1 -1 6350 1;
#X obj 411 224 *~;
#X obj 411 201 *~;
#X msg 261 249 \$1 20;
#X obj 261 271 line~;
#X obj 411 173 inlet~;
#X obj 111 256 hsl 128 15 0.008 1 0 0 empty empty empty -2 -8 0 10
-262144 -1 -1 6299 1;
#X floatatom 108 306 5 0 0 0 - - -;
#X floatatom 108 369 5 0 0 0 - - -;
#X obj 108 325 * -1;
#X obj 108 347 + 1;
#X floatatom 154 305 5 0 0 0 - - -;
#X obj 118 278 moses;
#X obj 110 232 bng 15 250 50 0 empty empty empty 17 7 0 10 -262144
-1 -1;
#X text 103 215 center;
#X msg 60 262 0.5;
#X obj 222 112 vsl 15 128 0 1 0 0 empty empty empty 0 -9 0 10 -4032
-1 -1 2500 1;
#X obj 686 38 inlet;
#X obj 574 38 inlet;
#X obj 341 274 *~;
#X obj 409 277 *~;
#X obj 410 375 outlet~;
#X obj 507 375 outlet~;
#X connect 1 0 8 0;
#X connect 2 0 29 0;
#X connect 3 0 6 1;
#X connect 3 0 12 1;
#X connect 6 0 2 0;
#X connect 7 0 6 0;
#X connect 8 0 9 0;
#X connect 9 0 2 1;
#X connect 10 0 13 0;
#X connect 11 0 30 0;
#X connect 12 0 11 0;
#X connect 13 0 14 0;
#X connect 14 0 11 1;
#X connect 15 0 12 0;
#X connect 16 0 17 0;
#X connect 17 0 10 0;
#X connect 17 0 19 0;
#X connect 18 0 1 0;
#X connect 19 0 20 0;
#X connect 20 0 18 0;
#X connect 23 0 25 0;
#X connect 25 0 16 0;
#X connect 26 0 29 1;
#X connect 26 0 30 1;
#X connect 27 0 26 0;
#X connect 28 0 16 0;
#X connect 29 0 0 0;
#X connect 29 0 31 0;
#X connect 30 0 0 1;
#X connect 30 0 32 0;
#X coords 0 -1 1 1 150 180 1 100 100;
#X restore 617 314 pd dac;
#X obj 247 40 soundfiler;
#X floatatom 247 63 10 0 0 0 - - -;
#X msg 247 17 read -resize tayloop1.wav grainArray;
#X obj 26 239 hsl 128 15 0.001 2 0 0 grainDuration empty empty -2 -8
0 10 -262144 -1 -1 11900 1;
#X obj 247 85 s sampleDuration;
#N canvas 114 23 521 402 gain 1;
#X obj 313 87 clone grain 16;
#X obj 94 38 tgl 15 0 empty toggleonoff empty 17 7 0 10 -262144 -1
-1 0 1;
#X obj 94 81 metro 125;
#X floatatom 154 59 5 0 0 0 - - -;
#X obj 154 14 r grainDensity;
#X obj 94 58 change;
#X text 5 37 on/off toggle;
#X obj 94 120 s masterGrainBang;
#X obj 313 43 r masterGrainBang;
#X obj 94 102 bng 15 250 50 0 empty empty empty 17 7 0 10 -262144 -1
-1;
#X obj 167 81 r playOneGrain;
#X obj 154 37 * 1000;
#N canvas 581 23 450 300 autoplay 1;
#X obj 130 136 phasor~;
#X obj 130 161 *~;
#X obj 130 45 r sampleDuration;
#X floatatom 190 137 8 0 0 0 - - -;
#X obj 130 68 expr $f2 / $f1;
#X obj 252 27 loadbang;
#X obj 252 50 samplerate~;
#X obj 316 30 bng 15 250 50 0 empty empty empty 17 7 0 10 -262144 -1
-1;
#X floatatom 130 91 5 0 0 0 - - -;
#X obj 130 113 * 1;
#X floatatom 22 69 5 0 0 0 - - -;
#X obj 22 95 t b f;
#X obj 22 45 r playbackRate;
#X text 17 20 autoplay;
#X obj 130 183 snapshot~;
#X obj 220 158 r masterGrainBang;
#N canvas 830 70 450 300 snapshot 0;
#X obj 68 43 snapshot~;
#X floatatom 68 96 10 0 0 0 - - -;
#X obj 155 5 tgl 15 0 empty toggleonoff empty 17 7 0 10 -262144 -1
-1 0 1;
#X obj 155 25 metro 10;
#X obj 68 14 inlet~;
#X obj 68 127 outlet;
#X obj 68 66 *;
#X obj 111 66 r grainPitch;
#X connect 0 0 6 0;
#X connect 1 0 5 0;
#X connect 2 0 3 0;
#X connect 3 0 0 0;
#X connect 4 0 0 0;
#X connect 6 0 1 0;
#X connect 7 0 6 1;
#X restore 242 225 pd snapshot;
#X floatatom 242 248 8 0 0 0 - - visualizerLoc;
#X text 242 205 visualizer;
#X obj 130 207 spigot;
#X obj 222 184 r toggleonoff;
#X obj 130 246 s startLoc_rcv;
#X connect 0 0 1 0;
#X connect 0 0 16 0;
#X connect 1 0 14 0;
#X connect 2 0 4 0;
#X connect 2 0 3 0;
#X connect 3 0 1 1;
#X connect 4 0 8 0;
#X connect 5 0 6 0;
#X connect 6 0 4 1;
#X connect 7 0 6 0;
#X connect 8 0 9 0;
#X connect 9 0 0 0;
#X connect 10 0 11 0;
#X connect 11 0 9 0;
#X connect 11 1 9 1;
#X connect 12 0 10 0;
#X connect 14 0 19 0;
#X connect 15 0 14 0;
#X connect 16 0 17 0;
#X connect 20 0 19 1;
#X restore 313 13 pd autoplay;
#X msg 313 65 next 1;
#X connect 1 0 5 0;
#X connect 2 0 9 0;
#X connect 3 0 2 1;
#X connect 4 0 11 0;
#X connect 5 0 2 0;
#X connect 8 0 13 0;
#X connect 9 0 7 0;
#X connect 10 0 9 0;
#X connect 11 0 3 0;
#X connect 13 0 0 0;
#X restore 616 154 pd gain control;
#X obj 25 299 hsl 128 15 -3 3 0 0 playbackRate empty empty -2 -8 0
10 -262144 -1 -1 5700 1;
#X floatatom 22 319 5 0 0 0 - - -;
#X text 20 279 playback rate;
#X text 20 222 grain duration;
#X obj 24 359 hsl 128 15 0.002 1 0 0 grainDensity empty empty -2 -8
0 10 -262144 -1 -1 12100 1;
#X text 19 339 grain density;
#X obj 23 203 tgl 15 0 toggleonoff empty empty 17 7 0 10 -262144 -1
-1 0 1;
#X text 46 201 on/off;
#N canvas 0 22 450 278 (subpatch) 0;
#X array grainArray 159862 float 2;
#X coords 0 1 159862 -1 200 140 1 0 0;
#X restore 21 19 graph;
#X obj 24 163 hsl 195 15 0 1 0 0 startLoc startLoc_rcv empty -2 -8
0 10 -262144 -1 -1 400 1;
#X obj 107 202 bng 15 250 50 0 playOneGrain empty empty 17 7 0 10 -262144
-1 -1;
#X text 126 203 play one grain;
#X obj 616 245 catch~ grainOut;
#X obj 616 268 *~ 0.8;
#X obj 26 423 hsl 128 15 0 2 0 0 grainPitch empty empty -2 -8 0 10
-262144 -1 -1 7200 1;
#X text 20 405 pitch;
#X floatatom 23 443 5 0 0 0 - - -;
#X floatatom 23 259 5 0 0 0 - - -;
#X floatatom 21 379 5 0 0 0 - - -;
#X obj 235 202 tgl 15 0 autoplayToggle empty empty 17 7 0 10 -262144
-1 -1 0 1;
#X text 258 201 autoplay;
#X obj 480 436 env~;
#X floatatom 480 459 5 0 0 0 - - -;
#X connect 0 0 28 0;
#X connect 1 0 2 0;
#X connect 2 0 5 0;
#X connect 3 0 1 0;
#X connect 4 0 24 0;
#X connect 7 0 8 0;
#X connect 11 0 25 0;
#X connect 19 0 20 0;
#X connect 20 0 0 0;
#X connect 20 0 0 1;
#X connect 21 0 23 0;
#X connect 28 0 29 0;
